<?xml version="1.0" encoding="UTF-8" standalone="no"?>
<!-- Created with Inkscape (http://www.inkscape.org/) -->

<svg
   xmlns:dc="http://purl.org/dc/elements/1.1/"
   xmlns:cc="http://creativecommons.org/ns#"
   xmlns:rdf="http://www.w3.org/1999/02/22-rdf-syntax-ns#"
   xmlns:svg="http://www.w3.org/2000/svg"
   xmlns="http://www.w3.org/2000/svg"
   xmlns:xlink="http://www.w3.org/1999/xlink"
   xmlns:sodipodi="http://sodipodi.sourceforge.net/DTD/sodipodi-0.dtd"
   xmlns:inkscape="http://www.inkscape.org/namespaces/inkscape"
   width="4440"
   height="1100"
   viewBox="0 0 4162.5001 1031.25"
   id="svg2"
   version="1.1"
   inkscape:version="0.92.1 unknown"
   sodipodi:docname="slogan.svg"
   inkscape:export-xdpi="28.799999"
   inkscape:export-ydpi="28.799999">
  <defs
     id="defs4">
    <linearGradient
       id="linearGradient4676"
       inkscape:collect="always">
      <stop
         id="stop4664"
         offset="0"
         style="stop-color:#388e3c;stop-opacity:1" />
      <stop
         id="stop4666"
         offset="0.2"
         style="stop-color:#00796b;stop-opacity:1" />
      <stop
         style="stop-color:#0d47a1;stop-opacity:1"
         offset="0.40000001"
         id="stop4668" />
      <stop
         id="stop4670"
         offset="0.60000002"
         style="stop-color:#7b1fa2;stop-opacity:1" />
      <stop
         style="stop-color:#d32f2f;stop-opacity:1"
         offset="0.80000001"
         id="stop4672" />
      <stop
         id="stop4674"
         offset="1"
         style="stop-color:#e65100;stop-opacity:1" />
    </linearGradient>
    <linearGradient
       inkscape:collect="always"
       id="linearGradient4646">
      <stop
         style="stop-color:#2e7d32;stop-opacity:0"
         offset="0"
         id="stop4642" />
      <stop
         style="stop-color:#f57c00;stop-opacity:1"
         offset="0.2"
         id="stop4654" />
      <stop
         id="stop4656"
         offset="0.40000001"
         style="stop-color:#00796b;stop-opacity:1" />
      <stop
         style="stop-color:#388e3c;stop-opacity:1"
         offset="0.60000002"
         id="stop4658" />
      <stop
         id="stop4660"
         offset="0.80000001"
         style="stop-color:#1976d2;stop-opacity:1" />
      <stop
         style="stop-color:#d32f2f;stop-opacity:1"
         offset="1"
         id="stop4644" />
    </linearGradient>
    <linearGradient
       inkscape:collect="always"
       id="linearGradient4542">
      <stop
         style="stop-color:#e6e6e6;stop-opacity:1;"
         offset="0"
         id="stop4538" />
      <stop
         style="stop-color:#e6e6e6;stop-opacity:0;"
         offset="1"
         id="stop4540" />
    </linearGradient>
    <linearGradient
       inkscape:collect="always"
       xlink:href="#linearGradient4542"
       id="linearGradient4546"
       x1="6506.2422"
       y1="-5461.3315"
       x2="7749.6758"
       y2="-5461.3315"
       gradientUnits="userSpaceOnUse" />
    <linearGradient
       inkscape:collect="always"
       xlink:href="#linearGradient4646"
       id="linearGradient4650"
       gradientUnits="userSpaceOnUse"
       x1="6536.7796"
       y1="5453.2016"
       x2="7436.7703"
       y2="5453.2016" />
    <linearGradient
       inkscape:collect="always"
       xlink:href="#linearGradient4676"
       id="linearGradient4678"
       gradientUnits="userSpaceOnUse"
       x1="6986.769"
       y1="5149.7778"
       x2="6986.769"
       y2="5728.5947" />
  </defs>
  <sodipodi:namedview
     id="base"
     pagecolor="#ffffff"
     bordercolor="#666666"
     borderopacity="1.0"
     inkscape:pageopacity="0.0"
     inkscape:pageshadow="2"
     inkscape:zoom="0.20767069"
     inkscape:cx="2771.6399"
     inkscape:cy="335.62574"
     inkscape:document-units="px"
     inkscape:current-layer="layer1"
     showgrid="false"
     showguides="false"
     inkscape:snap-center="true"
     inkscape:snap-object-midpoints="true"
     inkscape:snap-page="true"
     inkscape:snap-global="true"
     inkscape:snap-bbox="true"
     inkscape:object-paths="false"
     inkscape:snap-intersection-paths="true"
     inkscape:object-nodes="false"
     inkscape:snap-smooth-nodes="false"
     inkscape:snap-midpoints="false"
     inkscape:window-width="1920"
     inkscape:window-height="1019"
     inkscape:window-x="0"
     inkscape:window-y="0"
     inkscape:window-maximized="1"
     fit-margin-top="0"
     fit-margin-left="0"
     fit-margin-right="0"
     fit-margin-bottom="0"
     inkscape:showpageshadow="true"
     showborder="true"
     units="px"
     inkscape:snap-others="false" />
  <metadata
     id="metadata7">
    <rdf:RDF>
      <cc:Work
         rdf:about="">
        <dc:format>image/svg+xml</dc:format>
        <dc:type
           rdf:resource="http://purl.org/dc/dcmitype/StillImage" />
        <dc:title></dc:title>
      </cc:Work>
    </rdf:RDF>
  </metadata>
  <g
     inkscape:label="Layer 1"
     inkscape:groupmode="layer"
     id="layer1"
     transform="translate(-5839.6348,-3898.0734)">
    <rect
       inkscape:export-ydpi="38.400002"
       inkscape:export-xdpi="38.400002"
       y="3898.0735"
       x="5839.6348"
       height="1031.25"
       width="4162.5"
       id="rect4830"
       style="opacity:1;fill:#ffffff;fill-opacity:1;stroke:none;stroke-width:15.16537285;stroke-linecap:round;stroke-linejoin:round;stroke-miterlimit:4;stroke-dasharray:none;stroke-dashoffset:0;stroke-opacity:1" />
    <text
       inkscape:export-ydpi="95.961525"
       inkscape:export-xdpi="95.961525"
       id="text4880"
       y="4787.5029"
       x="7241.5059"
       style="font-style:normal;font-weight:normal;font-size:37.32410431px;line-height:23.32756233px;font-family:sans-serif;letter-spacing:0px;word-spacing:0px;fill:#90a4ae;fill-opacity:1;stroke:none;stroke-width:0.89052433px;stroke-linecap:butt;stroke-linejoin:miter;stroke-opacity:1"
       xml:space="preserve"><tspan
         style="font-style:normal;font-variant:normal;font-weight:bold;font-stretch:normal;font-size:124.41763306px;font-family:Laksaman;-inkscape-font-specification:'Laksaman, Bold';font-variant-ligatures:normal;font-variant-caps:normal;font-variant-numeric:normal;font-feature-settings:normal;text-align:start;writing-mode:lr-tb;text-anchor:start;fill:#90a4ae;fill-opacity:1;stroke-width:0.89052433px"
         y="4787.5029"
         x="7241.5059"
         id="tspan4878"
         sodipodi:role="line">The unified hub of UOS websites re-designed!</tspan></text>
    <g
       id="g4940"
       transform="matrix(1.0478127,0,0,1.0478127,-477.78044,-228.97936)"
       style="stroke-width:0.95436907">
      <path
         inkscape:export-ydpi="95.961525"
         inkscape:export-xdpi="95.961525"
         d="m 9155.5078,4525.37 h -38.6624 v -237.727 h -245.5061 v 237.727 h -38.6624 v -478.125 h 38.6624 v 207.0094 h 245.5061 V 4047.245 h 38.6624 z"
         style="font-style:normal;font-variant:normal;font-weight:normal;font-stretch:normal;font-size:662.5px;line-height:23.4375px;font-family:Laksaman;-inkscape-font-specification:'Laksaman, Normal';font-variant-ligatures:normal;font-variant-caps:normal;font-variant-numeric:normal;font-feature-settings:normal;text-align:start;letter-spacing:0px;word-spacing:0px;writing-mode:lr-tb;text-anchor:start;fill:#81c784;fill-opacity:1;stroke:none;stroke-width:0.98078674px;stroke-linecap:butt;stroke-linejoin:miter;stroke-opacity:1"
         id="path4866"
         inkscape:connector-curvature="0" />
      <path
         inkscape:export-ydpi="95.961525"
         inkscape:export-xdpi="95.961525"
         sodipodi:nodetypes="ccccccccccccc"
         d="m 9155.5078,4525.37 h -38.6624 v -237.727 h -245.5063 v 237.727 h -38.6624 v -478.125 h 38.6624 v 207.0094 h 245.5063 v -86.1576 l 38.6624,3.0869 z"
         style="font-style:normal;font-variant:normal;font-weight:normal;font-stretch:normal;font-size:662.5px;line-height:23.4375px;font-family:Laksaman;-inkscape-font-specification:'Laksaman, Normal';font-variant-ligatures:normal;font-variant-caps:normal;font-variant-numeric:normal;font-feature-settings:normal;text-align:start;letter-spacing:0px;word-spacing:0px;writing-mode:lr-tb;text-anchor:start;fill:#388e3c;fill-opacity:1;stroke:none;stroke-width:0.98078674px;stroke-linecap:butt;stroke-linejoin:miter;stroke-opacity:1"
         id="path4868"
         inkscape:connector-curvature="0" />
      <path
         inkscape:connector-curvature="0"
         id="path4882"
         style="font-style:normal;font-variant:normal;font-weight:normal;font-stretch:normal;font-size:662.5px;line-height:23.4375px;font-family:Laksaman;-inkscape-font-specification:'Laksaman, Normal';font-variant-ligatures:normal;font-variant-caps:normal;font-variant-numeric:normal;font-feature-settings:normal;text-align:start;letter-spacing:0px;word-spacing:0px;writing-mode:lr-tb;text-anchor:start;fill:#4caf50;fill-opacity:1;stroke:none;stroke-width:0.98078674px;stroke-linecap:butt;stroke-linejoin:miter;stroke-opacity:1"
         d="m 9116.8454,4168.0968 4e-4,-36.993 38.662,3.0869 v 36.993 z"
         sodipodi:nodetypes="ccccc"
         inkscape:export-xdpi="95.961525"
         inkscape:export-ydpi="95.961525" />
    </g>
    <g
       id="g4945"
       transform="matrix(1.0478127,0,0,1.0478127,-477.78044,-228.97936)"
       style="stroke-width:0.95436907">
      <path
         inkscape:connector-curvature="0"
         id="path4870"
         style="font-style:normal;font-variant:normal;font-weight:normal;font-stretch:normal;font-size:662.5px;line-height:23.4375px;font-family:Laksaman;-inkscape-font-specification:'Laksaman, Normal';font-variant-ligatures:normal;font-variant-caps:normal;font-variant-numeric:normal;font-feature-settings:normal;text-align:start;letter-spacing:0px;word-spacing:0px;writing-mode:lr-tb;text-anchor:start;fill:#64b5f6;fill-opacity:1;stroke:none;stroke-width:0.97133642px;stroke-linecap:butt;stroke-linejoin:miter;stroke-opacity:1"
         d="m 9606.0309,4318.4009 q 0,206.9691 -173.3366,206.9691 -173.3364,0 -173.3364,-206.9691 V 4047.245 h 38.6624 v 269.8459 q 0,83.1806 32.863,129.6832 32.8632,45.8477 101.811,45.8477 68.948,0 101.811,-45.8477 32.8632,-46.5026 32.8632,-129.6832 V 4047.245 h 38.6624 z"
         inkscape:export-xdpi="95.961525"
         inkscape:export-ydpi="95.961525" />
      <path
         sodipodi:nodetypes="sssccscscsccs"
         d="m 9606.0309,4318.4008 c 0,137.9795 -57.779,206.9692 -173.3366,206.9692 -115.5576,0 -173.3364,-68.9897 -173.3364,-206.9692 V 4047.245 h 38.6624 v 269.8459 c 0,55.4537 10.9543,98.6815 32.863,129.6832 21.9088,30.5651 55.8458,45.8476 101.811,45.8476 45.9653,0 79.9023,-15.2825 101.811,-45.8476 21.9088,-31.0017 32.8632,-74.2295 32.8632,-129.6832 V 4175.713 l 38.6624,3.2112 z"
         style="font-style:normal;font-variant:normal;font-weight:normal;font-stretch:normal;font-size:662.5px;line-height:23.4375px;font-family:Laksaman;-inkscape-font-specification:'Laksaman, Normal';font-variant-ligatures:normal;font-variant-caps:normal;font-variant-numeric:normal;font-feature-settings:normal;text-align:start;letter-spacing:0px;word-spacing:0px;writing-mode:lr-tb;text-anchor:start;fill:#1976d2;fill-opacity:1;stroke:none;stroke-width:0.97133642px;stroke-linecap:butt;stroke-linejoin:miter;stroke-opacity:1"
         id="path4872"
         inkscape:connector-curvature="0"
         inkscape:export-xdpi="95.961525"
         inkscape:export-ydpi="95.961525" />
      <path
         inkscape:export-ydpi="95.961525"
         inkscape:export-xdpi="95.961525"
         sodipodi:nodetypes="ccccc"
         d="m 9567.3685,4175.713 4e-4,-36.8687 38.662,3.0869 v 36.993 z"
         style="font-style:normal;font-variant:normal;font-weight:normal;font-stretch:normal;font-size:662.5px;line-height:23.4375px;font-family:Laksaman;-inkscape-font-specification:'Laksaman, Normal';font-variant-ligatures:normal;font-variant-caps:normal;font-variant-numeric:normal;font-feature-settings:normal;text-align:start;letter-spacing:0px;word-spacing:0px;writing-mode:lr-tb;text-anchor:start;fill:#2196f3;fill-opacity:1;stroke:none;stroke-width:0.98078674px;stroke-linecap:butt;stroke-linejoin:miter;stroke-opacity:1"
         id="path4884"
         inkscape:connector-curvature="0" />
    </g>
    <g
       id="g4935"
       transform="matrix(1.0478127,0,0,1.0478127,-477.78044,-228.97936)"
       style="stroke-width:0.95436907">
      <path
         inkscape:connector-curvature="0"
         id="path4862"
         style="font-style:normal;font-variant:normal;font-weight:normal;font-stretch:normal;font-size:662.5px;line-height:23.4375px;font-family:Laksaman;-inkscape-font-specification:'Laksaman, Normal';font-variant-ligatures:normal;font-variant-caps:normal;font-variant-numeric:normal;font-feature-settings:normal;text-align:start;letter-spacing:0px;word-spacing:0px;writing-mode:lr-tb;text-anchor:start;fill:#ba68c8;fill-opacity:1;stroke:none;stroke-width:0.97133642px;stroke-linecap:butt;stroke-linejoin:miter;stroke-opacity:1"
         d="m 7714.4332,4318.4009 q 0,206.9691 -173.3365,206.9691 -173.3363,0 -173.3363,-206.9691 V 4047.245 h 38.6624 v 269.8459 q 0,83.1806 32.8629,129.6832 32.8631,45.8477 101.811,45.8477 68.948,0 101.811,-45.8477 32.8632,-46.5026 32.8632,-129.6832 V 4047.245 h 38.6623 z"
         inkscape:export-xdpi="95.961525"
         inkscape:export-ydpi="95.961525" />
      <path
         inkscape:connector-curvature="0"
         id="path4864"
         style="font-style:normal;font-variant:normal;font-weight:normal;font-stretch:normal;font-size:662.5px;line-height:23.4375px;font-family:Laksaman;-inkscape-font-specification:'Laksaman, Normal';font-variant-ligatures:normal;font-variant-caps:normal;font-variant-numeric:normal;font-feature-settings:normal;text-align:start;letter-spacing:0px;word-spacing:0px;writing-mode:lr-tb;text-anchor:start;fill:#7b1fa2;fill-opacity:1;stroke:none;stroke-width:0.97133642px;stroke-linecap:butt;stroke-linejoin:miter;stroke-opacity:1"
         d="m 7714.4332,4318.4008 c 0,137.9795 -57.7789,206.9692 -173.3365,206.9692 -115.5575,0 -173.3364,-68.9897 -173.3364,-206.9692 V 4047.245 h 38.6624 v 269.8459 c 0,55.4537 10.9543,98.6815 32.863,129.6832 21.9087,30.5651 55.8458,45.8476 101.811,45.8476 45.9653,0 79.9022,-15.2825 101.8109,-45.8476 21.9088,-31.0017 32.8633,-74.2295 32.8633,-129.6832 V 4175.713 l 38.6623,3.2112 z"
         sodipodi:nodetypes="sssccscscsccs"
         inkscape:export-xdpi="95.961525"
         inkscape:export-ydpi="95.961525" />
      <path
         inkscape:connector-curvature="0"
         id="path4886"
         style="font-style:normal;font-variant:normal;font-weight:normal;font-stretch:normal;font-size:662.5px;line-height:23.4375px;font-family:Laksaman;-inkscape-font-specification:'Laksaman, Normal';font-variant-ligatures:normal;font-variant-caps:normal;font-variant-numeric:normal;font-feature-settings:normal;text-align:start;letter-spacing:0px;word-spacing:0px;writing-mode:lr-tb;text-anchor:start;fill:#9c27b0;fill-opacity:1;stroke:none;stroke-width:0.98078674px;stroke-linecap:butt;stroke-linejoin:miter;stroke-opacity:1"
         d="m 7675.7708,4175.8373 4e-4,-36.993 38.662,3.0869 v 36.993 z"
         sodipodi:nodetypes="ccccc"
         inkscape:export-xdpi="95.961525"
         inkscape:export-ydpi="95.961525" />
    </g>
    <g
       id="g4950"
       transform="matrix(1.0478127,0,0,1.0478127,-477.78044,-228.97936)"
       style="stroke-width:0.95436907">
      <path
         inkscape:connector-curvature="0"
         id="path4874"
         style="font-style:normal;font-variant:normal;font-weight:normal;font-stretch:normal;font-size:662.5px;line-height:23.4375px;font-family:Laksaman;-inkscape-font-specification:'Laksaman, Normal';font-variant-ligatures:normal;font-variant-caps:normal;font-variant-numeric:normal;font-feature-settings:normal;text-align:start;letter-spacing:0px;word-spacing:0px;writing-mode:lr-tb;text-anchor:start;fill:#ef5350;fill-opacity:1;stroke:none;stroke-width:0.9634499px;stroke-linecap:butt;stroke-linejoin:miter;stroke-opacity:1"
         d="m 9974.7179,4163.8766 q 0,37.3737 -22.553,66.3705 -21.9087,28.3524 -54.1274,39.9511 38.6624,9.6656 66.3705,42.5286 28.3519,32.2187 28.3519,76.0361 0,136.6071 -194.6002,136.6071 -45.7506,0 -88.2792,-9.0212 v -456.2163 q 49.6168,-12.8875 97.3004,-12.8875 167.537,0 167.537,116.6316 z m -148.2059,92.1454 q 47.0393,0 77.9693,-24.4862 31.5742,-24.4862 31.5742,-66.3705 0,-85.7016 -128.8746,-85.7016 -30.9299,0 -58.638,6.4437 v 170.1146 z m -20.6199,237.1294 q 64.4374,0 106.3216,-25.775 41.8843,-26.4193 41.8843,-77.9691 0,-50.9055 -39.3068,-76.0361 -39.3068,-25.1305 -99.8778,-25.1305 h -66.3705 v 199.1113 q 26.4193,5.7994 57.3492,5.7994 z"
         inkscape:export-xdpi="95.961525"
         inkscape:export-ydpi="95.961525" />
      <path
         inkscape:connector-curvature="0"
         id="path4876"
         style="font-style:normal;font-variant:normal;font-weight:normal;font-stretch:normal;font-size:662.5px;line-height:23.4375px;font-family:Laksaman;-inkscape-font-specification:'Laksaman, Normal';font-variant-ligatures:normal;font-variant-caps:normal;font-variant-numeric:normal;font-feature-settings:normal;text-align:start;letter-spacing:0px;word-spacing:0px;writing-mode:lr-tb;text-anchor:start;fill:#d32f2f;fill-opacity:1;stroke:none;stroke-width:0.9634499px;stroke-linecap:butt;stroke-linejoin:miter;stroke-opacity:1"
         d="m 9974.558,4170.067 c -1.158,22.3901 -8.622,42.4379 -22.3931,60.1433 -14.606,18.9016 -32.6484,32.2187 -54.1274,39.9512 25.7749,6.4437 47.8984,20.6199 66.3705,42.5286 18.901,21.4791 28.3519,46.8245 28.3519,76.036 0,91.0714 -64.8665,136.6072 -194.6003,136.6072 -30.5003,0 -59.9268,-3.0071 -88.2791,-9.0212 v -456.2163 c 30.5788,-7.9425 60.6068,-12.2139 90.0843,-12.814 l 7.2161,32.1452 c -20.6201,0 -40.166,2.1478 -58.638,6.4437 v 170.1145 h 77.9691 c 31.3596,0 57.3493,-8.1621 77.9692,-24.4861 21.0496,-16.3241 31.5742,-38.4477 31.5742,-66.3705 z m -168.6659,323.0476 c 42.9582,0 78.3987,-8.5916 106.3216,-25.7749 27.9228,-17.6128 41.8843,-43.6026 41.8843,-77.9692 0,-33.937 -13.1022,-59.2823 -39.3068,-76.036 -26.2046,-16.7537 -59.4972,-25.1306 -99.8779,-25.1306 h -66.3704 v 199.1114 c 17.6128,3.8662 36.7293,5.7993 57.3492,5.7993 z"
         sodipodi:nodetypes="ccccssccccccscccscsssccs"
         inkscape:export-xdpi="95.961525"
         inkscape:export-ydpi="95.961525" />
      <path
         d="m 9807.1819,4047.2452 c -2.3979,0 -4.8001,0.034 -7.2053,0.082 l 7.2053,32.1002 c 0,0 0.01,0.036 0.01,0.037 14.7426,4e-4 28.2203,0.842 40.4329,2.5248 l -7.7161,-33.5074 c -10.3165,-0.8244 -21.2252,-1.2366 -32.7259,-1.2366 z m 121.6748,82.1988 c 4.7946,10.3022 7.1941,22.1971 7.1987,35.6846 l 38.4851,4.9384 c 0.1053,-2.0462 0.1795,-4.1038 0.1795,-6.189 0,-11.1527 -1.149,-21.5056 -3.4469,-31.0587 z"
         style="font-style:normal;font-variant:normal;font-weight:normal;font-stretch:normal;font-size:662.5px;line-height:23.4375px;font-family:Laksaman;-inkscape-font-specification:'Laksaman, Normal';font-variant-ligatures:normal;font-variant-caps:normal;font-variant-numeric:normal;font-feature-settings:normal;text-align:start;letter-spacing:0px;word-spacing:0px;writing-mode:lr-tb;text-anchor:start;fill:#e53935;fill-opacity:1;stroke:none;stroke-width:0.9634499px;stroke-linecap:butt;stroke-linejoin:miter;stroke-opacity:1"
         id="path4906"
         inkscape:connector-curvature="0" />
    </g>
    <g
       id="g4930"
       transform="matrix(1.0478127,0,0,1.0478127,-477.78053,-228.93305)"
       style="stroke-width:0.95436907">
      <path
         inkscape:export-ydpi="95.961525"
         inkscape:export-xdpi="95.961525"
         d="m 8588.5963,4395.851 q 0,59.9267 -45.1061,94.7229 -44.4618,34.7961 -111.4765,34.7961 -76.0362,0 -126.9417,-35.4405 l 15.465,-32.863 q 47.6835,36.0849 115.3428,36.0849 50.9055,0 82.4799,-24.4862 31.5742,-24.4862 31.5742,-69.5923 0,-43.8174 -25.1306,-65.7261 -25.1304,-22.5531 -75.3916,-38.018 -128.8747,-41.8843 -128.8747,-130.1635 0,-54.1273 41.2399,-85.7016 41.2399,-32.2187 101.811,-32.2187 64.4373,0 105.6773,24.4862 -1.2887,2.5775 -7.7325,14.1762 -5.7994,10.9544 -8.3769,16.1094 -41.8843,-22.5531 -90.2122,-22.5531 -45.1061,0 -74.7474,21.2643 -28.9967,21.2643 -28.9967,59.9267 0,63.793 99.8778,98.5892 32.2186,11.5987 51.5499,21.2643 19.9756,9.0212 39.9512,24.4862 19.9756,15.4649 28.9968,38.018 9.0211,22.5531 9.0211,52.8386 z"
         style="font-style:normal;font-variant:normal;font-weight:normal;font-stretch:normal;font-size:662.5px;line-height:23.4375px;font-family:Laksaman;-inkscape-font-specification:'Laksaman, Normal';font-variant-ligatures:normal;font-variant-caps:normal;font-variant-numeric:normal;font-feature-settings:normal;text-align:start;letter-spacing:0px;word-spacing:0px;writing-mode:lr-tb;text-anchor:start;fill:#4db6ac;fill-opacity:1;stroke:none;stroke-width:0.9634499px;stroke-linecap:butt;stroke-linejoin:miter;stroke-opacity:1"
         id="path4858"
         inkscape:connector-curvature="0" />
      <path
         inkscape:export-ydpi="95.961525"
         inkscape:export-xdpi="95.961525"
         sodipodi:nodetypes="scsccsssccsccccsccsss"
         d="m 8588.5963,4395.8133 c 0,39.9511 -15.0353,71.5254 -45.1062,94.7228 -29.641,23.1975 -66.7999,34.7962 -111.4764,34.7962 -50.6908,0 -93.0046,-11.8135 -126.9417,-35.4405 l 15.465,-32.8631 c 31.7891,24.0566 70.2367,36.0849 115.3428,36.0849 33.9371,0 61.4303,-8.1621 82.4799,-24.4862 21.0495,-16.3241 31.5742,-39.5215 31.5742,-69.5923 0,-29.2115 -8.3768,-51.1202 -25.1306,-65.7261 -16.7537,-15.0353 -41.8841,-27.708 -75.3917,-38.018 -85.9163,-27.9228 -128.8746,-71.3107 -128.8746,-130.1634 0,-36.0849 13.7466,-64.6521 41.2399,-85.7016 20.1147,-15.7146 43.6784,-25.6805 70.6912,-29.898 l 8.2396,31.3122 c -20.3429,2.713 -37.8467,9.3297 -52.5115,19.8501 -19.3311,14.1762 -28.9967,34.1518 -28.9967,59.9267 0,42.5286 33.2925,75.3917 99.8777,98.5891 21.4791,7.7325 38.6625,14.8206 51.55,21.2643 13.3171,6.0141 26.6341,14.1762 39.9512,24.4862 13.317,10.31 22.9826,22.9827 28.9968,38.018 6.014,15.0354 9.0211,32.6483 9.0211,52.8387 z"
         style="font-style:normal;font-variant:normal;font-weight:normal;font-stretch:normal;font-size:662.5px;line-height:23.4375px;font-family:Laksaman;-inkscape-font-specification:'Laksaman, Normal';font-variant-ligatures:normal;font-variant-caps:normal;font-variant-numeric:normal;font-feature-settings:normal;text-align:start;letter-spacing:0px;word-spacing:0px;writing-mode:lr-tb;text-anchor:start;fill:#00796b;fill-opacity:1;stroke:none;stroke-width:0.9634499px;stroke-linecap:butt;stroke-linejoin:miter;stroke-opacity:1"
         id="path4860"
         inkscape:connector-curvature="0" />
      <path
         style="font-style:normal;font-variant:normal;font-weight:normal;font-stretch:normal;font-size:662.5px;line-height:23.4375px;font-family:Laksaman;-inkscape-font-specification:'Laksaman, Normal';font-variant-ligatures:normal;font-variant-caps:normal;font-variant-numeric:normal;font-feature-settings:normal;text-align:start;letter-spacing:0px;word-spacing:0px;writing-mode:lr-tb;text-anchor:start;fill:#26a69a;fill-opacity:1;stroke:none;stroke-width:0.9634499px;stroke-linecap:butt;stroke-linejoin:miter;stroke-opacity:1"
         d="m 8463.5759,4047.2008 c -10.8349,0 -21.2008,0.7809 -31.1078,2.3272 l 8.2288,31.269 c 0,0.015 0.01,0.031 0.013,0.046 7.0669,-0.9421 14.4696,-1.4227 22.2217,-1.4227 5.2203,0 10.3844,0.1974 15.4921,0.5921 l -8.4479,-32.7499 c -2.1137,-0.041 -4.247,-0.061 -6.3997,-0.061 z"
         id="path4890"
         inkscape:connector-curvature="0"
         sodipodi:nodetypes="scccsccs" />
    </g>
    <g
       id="g4925"
       transform="matrix(1.0478127,0,0,1.0478127,-2874.5634,-228.95128)"
       style="stroke-width:0.95436907">
      <path
         inkscape:connector-curvature="0"
         id="path4854"
         style="font-style:normal;font-variant:normal;font-weight:normal;font-stretch:normal;font-size:662.5px;line-height:23.4375px;font-family:Laksaman;-inkscape-font-specification:'Laksaman, Normal';font-variant-ligatures:normal;font-variant-caps:normal;font-variant-numeric:normal;font-feature-settings:normal;text-align:start;letter-spacing:0px;word-spacing:0px;writing-mode:lr-tb;text-anchor:start;fill:#ffb74d;fill-opacity:1;stroke:none;stroke-width:0.9634499px;stroke-linecap:butt;stroke-linejoin:miter;stroke-opacity:1"
         d="m 10523.289,4286.9519 q 0,101.811 -59.283,170.1146 -58.638,68.3035 -154.65,68.3035 -95.367,0 -155.293,-68.3035 -59.283,-68.948 -59.283,-170.1146 0,-101.1666 59.283,-170.1146 59.926,-69.5923 155.293,-69.5923 95.368,0 154.65,68.948 59.283,68.9479 59.283,170.7589 z m -38.663,0 q 0,-83.7685 -49.617,-145.6284 -48.972,-61.8598 -125.653,-61.8598 -77.969,0 -126.941,61.8598 -48.972,61.2155 -48.972,145.6284 0,84.4129 48.972,145.6284 48.972,60.5711 126.941,60.5711 76.681,0 125.653,-61.2155 49.617,-61.2155 49.617,-144.984 z"
         inkscape:export-xdpi="95.961525"
         inkscape:export-ydpi="95.961525" />
      <path
         inkscape:connector-curvature="0"
         id="path4856"
         style="font-style:normal;font-variant:normal;font-weight:normal;font-stretch:normal;font-size:662.5px;line-height:23.4375px;font-family:Laksaman;-inkscape-font-specification:'Laksaman, Normal';font-variant-ligatures:normal;font-variant-caps:normal;font-variant-numeric:normal;font-feature-settings:normal;text-align:start;letter-spacing:0px;word-spacing:0px;writing-mode:lr-tb;text-anchor:start;fill:#f57c00;fill-opacity:1;stroke:none;stroke-width:0.9634499px;stroke-linecap:butt;stroke-linejoin:miter;stroke-opacity:1"
         d="m 10498.32,4168.6199 c 16.646,34.8216 24.969,74.257 24.969,118.3061 0,67.8739 -19.761,124.5788 -59.283,170.1145 -39.092,45.5358 -90.642,68.3036 -154.65,68.3036 -63.578,0 -115.342,-22.7678 -155.293,-68.3036 -39.522,-45.9652 -59.283,-102.6701 -59.283,-170.1145 0,-67.4445 19.761,-124.1493 59.283,-170.1146 38.861,-45.1289 88.899,-68.309 150.115,-69.5405 l 5.178,32.1669 c -51.979,0 -94.293,20.6199 -126.941,61.8598 -32.648,40.8103 -48.972,89.3531 -48.972,145.6284 0,56.2752 16.324,104.8181 48.972,145.6283 32.648,40.3808 74.962,60.5711 126.941,60.5711 51.121,0 93.005,-20.4052 125.653,-61.2154 33.078,-40.8103 49.617,-89.1383 49.617,-144.984 0,-44.8688 -10.676,-85.0234 -32.029,-120.4638 z"
         sodipodi:nodetypes="cscscsccccscscscc"
         inkscape:export-xdpi="95.961525"
         inkscape:export-ydpi="95.961525" />
      <path
         sodipodi:nodetypes="cscccccccccc"
         inkscape:connector-curvature="0"
         d="m 10343.867,4049.6448 c -11.08,-1.6178 -22.584,-2.4266 -34.511,-2.4266 -1.734,0 -3.457,0.024 -5.173,0.059 l 5.173,32.1606 c 14.186,0 27.662,1.5881 40.426,4.7642 m 78.496,49.0596 c 2.286,2.5935 4.529,5.2809 6.731,8.0619 6.487,8.0883 12.328,16.4628 17.543,25.1129 l 0.04,0.026 45.698,2.1552 c -6.016,-12.58 -13.114,-24.5606 -21.301,-35.938 z"
         style="font-style:normal;font-variant:normal;font-weight:normal;font-stretch:normal;font-size:662.5px;line-height:23.4375px;font-family:Laksaman;-inkscape-font-specification:'Laksaman, Normal';font-variant-ligatures:normal;font-variant-caps:normal;font-variant-numeric:normal;font-feature-settings:normal;text-align:start;letter-spacing:0px;word-spacing:0px;writing-mode:lr-tb;text-anchor:start;fill:#ff9800;fill-opacity:1;stroke:none;stroke-width:0.9634499px;stroke-linecap:butt;stroke-linejoin:miter;stroke-opacity:1"
         id="path4910" />
    </g>
    <g
       id="g8751">
      <path
         inkscape:connector-curvature="0"
         id="path8670"
         d="m 6633.6119,4760.1701 c -15.4082,8.896 -33.7198,11.3088 -50.9066,6.7038 -17.1855,-4.6054 -31.8387,-15.8509 -40.7349,-31.2599 -8.8962,-15.4084 -11.308,-33.7185 -6.7038,-50.9045 4.6055,-17.1864 15.8505,-31.8407 31.2589,-40.7367 15.4083,-8.896 33.722,-11.3072 50.9085,-6.7027 17.1856,4.6058 31.8376,15.8494 40.734,31.2583 8.8963,15.4085 11.308,33.7211 6.7038,50.9067 -4.6053,17.1865 -15.8515,31.8391 -31.2599,40.735 z m -165.8758,-42.5994 c -11.398,0.5505 -22.799,0.5141 -34.1582,-0.097 -11.3602,0.6103 -22.7615,0.6459 -34.1602,0.095 -0.9038,-11.6992 -0.7792,-23.4884 0.3755,-35.2347 -0.7462,-5.0277 -1.7765,-10.0336 -3.1053,-14.9923 -9.2096,-34.3718 -31.6999,-63.6774 -62.5173,-81.47 -30.8173,-17.7924 -67.4415,-22.6156 -101.8134,-13.4055 -4.9573,1.3279 -9.8058,2.9369 -14.5316,4.8038 -9.5961,6.8746 -19.7455,12.8784 -30.3305,17.946 -6.1754,-9.5965 -11.845,-19.4866 -16.9963,-29.629 -6.2092,-9.5331 -11.9407,-19.389 -17.163,-29.5366 9.6797,-6.632 19.9525,-12.4185 30.7022,-17.2913 3.9813,-3.1604 7.801,-6.5561 11.4307,-10.1864 25.1627,-25.1617 39.297,-59.291 39.2973,-94.8759 0,-35.5848 -14.1348,-69.7137 -39.2968,-94.8751 -3.6286,-3.6293 -7.447,-7.0245 -11.4264,-10.1838 -10.7514,-4.8733 -21.0253,-10.6609 -30.7061,-17.2941 5.221,-10.1443 10.9506,-19.9974 17.158,-29.528 5.1521,-10.1457 10.8232,-20.0392 17.001,-29.6372 10.5829,5.0671 20.7307,11.0695 30.3253,17.9427 4.7278,1.8674 9.5789,3.4775 14.5378,4.8059 34.3719,9.2107 70.9962,4.3875 101.8136,-13.4053 30.8173,-17.7922 53.3064,-47.098 62.5159,-81.4701 1.329,-4.9586 2.3598,-9.964 3.1061,-14.9919 -1.1549,-11.7462 -1.2801,-23.5359 -0.3765,-35.2348 11.3972,-0.5504 22.7972,-0.5132 34.1554,0.097 11.3611,-0.6102 22.7632,-0.6465 34.1631,-0.095 0.9038,11.6987 0.7785,23.4887 -0.3765,35.2351 0.746,5.0276 1.7778,10.0333 3.1065,14.9915 9.2092,34.3723 31.6987,63.6783 62.5162,81.4708 30.8175,17.7925 67.4419,22.6155 101.8137,13.4055 4.9571,-1.3278 9.8063,-2.9375 14.5322,-4.8046 9.596,-6.8744 19.7449,-12.8774 30.3295,-17.9451 6.1759,9.5964 11.8457,19.4871 16.9969,29.6302 6.2084,9.5327 11.9394,19.3884 17.1624,29.5356 -9.6797,6.6316 -19.9519,12.418 -30.7016,17.2905 -3.9808,3.1605 -7.8007,6.5565 -11.4308,10.1868 -25.1624,25.1613 -39.2974,59.2905 -39.2973,94.8756 1e-4,35.5851 14.1348,69.7136 39.2971,94.8753 3.6294,3.6297 7.4482,7.026 11.4289,10.1858 10.7505,4.8732 21.0235,10.659 30.7039,17.2916 -5.2216,10.1445 -10.952,19.9983 -17.1588,29.5294 -5.1522,10.1453 -10.8227,20.0383 -17.0006,29.6364 -10.583,-5.0669 -20.7304,-11.0699 -30.3253,-17.9427 -4.7275,-1.8677 -9.5786,-3.4775 -14.5376,-4.8064 -34.372,-9.2103 -70.9958,-4.3868 -101.8135,13.4055 -30.8172,17.7926 -53.3065,47.0981 -62.5161,81.4703 -1.3288,4.958 -2.3593,9.9636 -3.1058,14.9906 1.1551,11.7463 1.2801,23.537 0.3762,35.236 z m -166.5938,42.301 c -5.1779,3.0515 -10.7859,5.4198 -16.693,7.0032 -17.1868,4.6044 -35.5,2.1905 -50.9082,-6.7051 -15.4082,-8.896 -26.654,-23.5479 -31.2591,-40.7342 -4.6042,-17.1856 -2.1923,-35.4986 6.704,-50.9074 8.8961,-15.409 23.5476,-26.6514 40.733,-31.2573 17.1866,-4.6051 35.5003,-2.1939 50.9086,6.7021 15.4081,8.8959 26.6536,23.5505 31.2586,40.7369 4.6042,17.1857 2.1928,35.4959 -6.7034,50.9048 -5.8383,10.1122 -14.155,18.4308 -24.0405,24.257 z m 498.4467,-287.7781 c -9.9879,5.648 -21.3519,8.691 -33.028,8.6914 -17.7927,-1e-4 -34.8555,-7.0672 -47.4367,-19.6474 -12.581,-12.5812 -19.65,-29.647 -19.6498,-47.4388 -1e-4,-17.7921 7.0687,-34.8578 19.65,-47.4394 12.5814,-12.58 29.6445,-19.6476 47.4369,-19.6476 17.7927,1e-4 34.858,7.0676 47.4392,19.6479 12.5812,12.5813 19.6473,29.6463 19.6474,47.4383 -4e-4,17.7919 -7.0666,34.8579 -19.6479,47.4393 -4.3245,4.3242 -9.1791,7.9978 -14.4111,10.9563 z m -366.0122,116.9109 c 16.8987,-24.8829 39.3194,-45.9036 65.8625,-61.2282 26.5432,-15.3247 55.9585,-24.2317 85.9571,-26.4249 -13.0998,-27.0763 -20.095,-57.0038 -20.0951,-87.6531 -1e-4,-30.6495 6.9945,-60.5772 20.0947,-87.6534 -29.9985,-2.193 -59.4139,-11.0988 -85.9568,-26.4231 -26.543,-15.3248 -48.9637,-36.3466 -65.8623,-61.2296 -16.8986,24.8832 -39.32,45.9038 -65.8634,61.2287 -26.5429,15.3245 -55.9575,24.2312 -85.9561,26.4244 13.0999,27.0762 20.0943,57.0044 20.0942,87.6537 2e-4,30.6491 -6.9944,60.5756 -20.0941,87.6517 29.9987,2.1932 59.413,11.1 85.9562,26.4248 26.543,15.3245 48.9642,36.3461 65.8631,61.229 z m -299.9583,-116.911 c -9.9876,5.6478 -21.3497,8.6912 -33.0262,8.6915 -17.7923,3e-4 -34.858,-7.0679 -47.4392,-19.648 -12.581,-12.5814 -19.6472,-29.6464 -19.647,-47.4385 -10e-5,-17.7915 7.0657,-34.8569 19.6469,-47.4386 12.581,-12.5804 29.647,-19.6472 47.439,-19.6477 17.7927,0 34.8556,7.0669 47.4366,19.6468 12.5812,12.5819 19.65,29.6474 19.6499,47.4393 -3e-4,17.7923 -7.068,34.8571 -19.6489,47.4392 -4.325,4.3241 -9.1797,7.9974 -14.4111,10.956 z m 500.5095,-288.969 c -5.1778,3.0514 -10.7867,5.4186 -16.6941,7.0019 -17.1864,4.6047 -35.5004,2.1935 -50.9088,-6.7024 -15.4082,-8.8964 -26.653,-23.5504 -31.2582,-40.7369 -4.6043,-17.1854 -2.1929,-35.4958 6.7034,-50.9045 8.8961,-15.4091 23.5491,-26.6548 40.7344,-31.2607 17.1864,-4.6047 35.4997,-2.1909 50.9081,6.7047 15.408,8.8964 26.6538,23.5482 31.2592,40.7345 4.6041,17.1857 2.1921,35.4986 -6.7042,50.9074 -5.8381,10.1122 -14.1551,18.4302 -24.0398,24.256 z m -333.501,0.2989 c -15.4081,8.896 -33.7215,11.3081 -50.9079,6.7034 -17.1855,-4.6059 -31.8369,-15.8494 -40.7331,-31.2588 -8.8961,-15.4083 -11.3092,-33.7205 -6.7049,-50.9058 4.6053,-17.1867 15.8516,-31.8392 31.2598,-40.7352 15.4084,-8.896 33.7211,-11.3094 50.9077,-6.7043 17.1851,4.6053 31.8388,15.851 40.7352,31.26 8.8958,15.4084 11.3065,33.7184 6.702,50.904 -4.6051,17.1867 -15.8503,31.8412 -31.2588,40.7367 z"
         style="opacity:1;fill:#333333;fill-opacity:1;stroke:none;stroke-width:131.25003052;stroke-linecap:butt;stroke-linejoin:miter;stroke-miterlimit:4;stroke-dasharray:none;stroke-dashoffset:0;stroke-opacity:1;paint-order:markers fill stroke" />
      <path
         inkscape:connector-curvature="0"
         id="path8672"
         d="m 6725.8604,4919.9484 c -39.9878,-27.2011 -107.4179,-4.4533 -177.8813,-23.4716 -51.5579,-13.8149 -95.5206,-47.5475 -122.2092,-93.7741 -3.3259,-5.7604 -6.3498,-11.6559 -9.0645,-17.6657 24.4672,-0.071 48.8574,-2.3693 72.8693,-6.8593 18.027,26.1749 44.8458,45.2105 75.7686,53.4957 34.372,9.2104 70.9947,4.3878 101.8134,-13.4053 30.8183,-17.7932 53.3067,-47.0983 62.5161,-81.4704 8.2861,-30.9224 5.2104,-63.6661 -8.4443,-92.3657 15.8944,-18.5496 30.0803,-38.5223 42.375,-59.6766 3.8472,5.3557 7.4383,10.9237 10.7643,16.6844 26.6888,46.2261 33.9218,101.1636 20.1082,152.7225 -18.7612,70.5313 -72.1789,117.5552 -68.6156,165.7861 z"
         style="opacity:1;fill:#1976d2;fill-opacity:1;stroke:none;stroke-width:131.25003052;stroke-linecap:butt;stroke-linejoin:miter;stroke-miterlimit:4;stroke-dasharray:none;stroke-dashoffset:0;stroke-opacity:1;paint-order:markers fill stroke" />
      <path
         inkscape:connector-curvature="0"
         id="path8702"
         d="m 7018.1436,4413.6981 c -43.5507,21.0302 -57.5655,90.8002 -109.2676,142.3138 -37.7431,37.7431 -88.9374,58.9495 -142.3148,58.95 -6.652,-1e-4 -13.2695,-0.329 -19.8316,-0.9832 12.1723,-21.2249 22.3769,-43.4965 30.4943,-66.5365 31.6818,-2.5243 61.5764,-16.2325 84.2132,-38.8695 25.1626,-25.1616 39.297,-59.2893 39.297,-94.8757 1e-4,-35.5861 -14.1347,-69.7138 -39.2967,-94.8754 -22.6371,-22.6377 -52.5315,-36.3453 -84.2134,-38.8701 -8.1175,-23.0395 -18.3217,-45.3115 -30.4942,-66.536 6.5621,-0.6541 13.1795,-0.9802 19.8314,-0.9804 53.3775,2e-4 104.5711,21.2051 142.3149,58.9473 51.7019,51.5134 65.7168,121.2865 109.2675,142.3157 z"
         style="opacity:1;fill:#00796b;fill-opacity:1;stroke:none;stroke-width:131.25003052;stroke-linecap:butt;stroke-linejoin:miter;stroke-miterlimit:4;stroke-dasharray:none;stroke-dashoffset:0;stroke-opacity:1;paint-order:markers fill stroke" />
      <path
         inkscape:connector-curvature="0"
         id="path8696"
         d="m 6725.8603,3907.4486 c -3.5633,48.2307 49.8523,95.2532 68.6134,165.7852 13.8138,51.5581 6.583,106.497 -20.1056,152.7234 -3.3261,5.7607 -6.9195,11.3271 -10.7672,16.683 -12.2951,-21.1541 -26.4804,-41.127 -42.3748,-59.677 13.6545,-28.6993 16.7304,-61.443 8.4444,-92.3656 -9.2096,-34.3721 -31.6976,-63.6771 -62.5163,-81.4701 -30.8185,-17.793 -67.4415,-22.6159 -101.8131,-13.4056 -30.9229,8.2854 -57.742,27.3207 -75.769,53.4959 -24.0119,-4.4899 -48.4017,-6.789 -72.8689,-6.8596 2.7146,-6.0094 5.7408,-11.9039 9.0666,-17.6644 26.689,-46.2261 70.6495,-79.959 122.2073,-93.7747 70.4627,-19.0187 137.8956,3.7306 177.8832,-23.4705 z"
         style="opacity:1;fill:#388e3c;fill-opacity:1;stroke:none;stroke-width:131.25003052;stroke-linecap:butt;stroke-linejoin:miter;stroke-miterlimit:4;stroke-dasharray:none;stroke-dashoffset:0;stroke-opacity:1;paint-order:markers fill stroke" />
      <path
         inkscape:connector-curvature="0"
         id="path8690"
         d="m 6141.2932,3907.4484 c 39.9879,27.2016 107.4181,4.4537 177.881,23.4719 51.5577,13.8158 95.5207,47.5476 122.2095,93.7737 3.3259,5.7608 6.35,11.6559 9.0646,17.666 -24.4675,0.07 -48.8576,2.3692 -72.8694,6.8592 -18.0272,-26.1752 -44.846,-45.2105 -75.7687,-53.4958 -34.372,-9.2104 -70.9948,-4.3875 -101.8134,13.4054 -30.8183,17.7933 -53.3065,47.0981 -62.516,81.4704 -8.2861,30.9224 -5.2104,63.6658 8.4443,92.3653 -15.894,18.5503 -30.0803,38.5229 -42.3748,59.6771 -3.8475,-5.3559 -7.4387,-10.9239 -10.7647,-16.6845 -26.6887,-46.2262 -33.9216,-101.1638 -20.1078,-152.7221 18.761,-70.532 72.1786,-117.5552 68.6154,-165.7866 z"
         style="opacity:1;fill:#f57c00;fill-opacity:1;stroke:none;stroke-width:131.25003052;stroke-linecap:butt;stroke-linejoin:miter;stroke-miterlimit:4;stroke-dasharray:none;stroke-dashoffset:0;stroke-opacity:1;paint-order:markers fill stroke" />
      <path
         inkscape:connector-curvature="0"
         id="path8684"
         d="m 5849.0098,4413.6985 c 43.551,-21.0298 57.5655,-90.8001 109.2678,-142.3138 37.7427,-37.7427 88.9373,-58.9493 142.3146,-58.9494 6.6519,-1e-4 13.2696,0.3287 19.8318,0.9826 -12.1724,21.225 -22.3769,43.4965 -30.4945,66.5366 -31.6817,2.5243 -61.5764,16.2324 -84.2131,38.8696 -25.1625,25.1617 -39.2968,59.2896 -39.2967,94.8756 -2e-4,35.5861 14.1344,69.7141 39.2968,94.8756 22.6367,22.6375 52.5314,36.3456 84.2131,38.8699 8.1177,23.0396 18.3214,45.3118 30.4943,66.5364 -6.5622,0.6535 -13.1798,0.9801 -19.8311,0.9802 -53.378,-4e-4 -104.5718,-21.205 -142.3154,-58.9477 -51.7018,-51.513 -65.7169,-121.286 -109.2676,-142.3156 z"
         style="opacity:1;fill:#d32f2f;fill-opacity:1;stroke:none;stroke-width:131.25003052;stroke-linecap:butt;stroke-linejoin:miter;stroke-miterlimit:4;stroke-dasharray:none;stroke-dashoffset:0;stroke-opacity:1;paint-order:markers fill stroke" />
      <path
         inkscape:connector-curvature="0"
         id="path8678"
         d="m 6141.2932,4919.9481 c 3.5634,-48.2309 -49.8519,-95.2531 -68.6133,-165.7852 -13.8138,-51.5581 -6.5831,-106.4969 20.1056,-152.7228 3.3259,-5.7614 6.9193,-11.3276 10.7672,-16.6834 12.295,21.154 26.4804,41.1268 42.3748,59.677 -13.6549,28.6993 -16.7306,61.443 -8.4445,92.3654 9.2097,34.3724 31.6977,63.6773 62.5162,81.4703 30.8184,17.7929 67.4414,22.6158 101.8136,13.4056 30.9225,-8.2854 57.7414,-27.3208 75.7686,-53.4959 24.0119,4.4899 48.4017,6.789 72.869,6.8593 -2.7146,6.0096 -5.7409,11.9043 -9.0669,17.6647 -26.6887,46.2258 -70.6493,79.959 -122.2072,93.7747 -70.4627,19.0187 -137.8952,-3.7308 -177.8831,23.4703 z"
         style="opacity:1;fill:#7b1fa2;fill-opacity:1;stroke:none;stroke-width:131.25003052;stroke-linecap:butt;stroke-linejoin:miter;stroke-miterlimit:4;stroke-dasharray:none;stroke-dashoffset:0;stroke-opacity:1;paint-order:markers fill stroke" />
      <path
         sodipodi:nodetypes="cccccc"
         style="opacity:1;fill:#1976d2;fill-opacity:1;stroke:none;stroke-width:131.25003052;stroke-linecap:butt;stroke-linejoin:miter;stroke-miterlimit:4;stroke-dasharray:none;stroke-dashoffset:0;stroke-opacity:1;paint-order:markers fill stroke"
         d="m 6547.9791,4896.4768 c -51.5579,-13.8149 -95.5206,-47.5475 -122.2092,-93.7741 -3.3259,-5.7604 -6.3498,-11.6559 -9.0645,-17.6657 24.4672,-0.071 48.8574,-2.3693 72.8693,-6.8593 18.027,26.1749 44.8458,45.2105 75.7686,53.4957 z"
         id="path8709"
         inkscape:connector-curvature="0" />
    </g>
  </g>
</svg>
