<?xml version="1.0" encoding="UTF-8" standalone="no"?>
<!-- Created with Inkscape (http://www.inkscape.org/) -->

<svg
   xmlns:dc="http://purl.org/dc/elements/1.1/"
   xmlns:cc="http://creativecommons.org/ns#"
   xmlns:rdf="http://www.w3.org/1999/02/22-rdf-syntax-ns#"
   xmlns:svg="http://www.w3.org/2000/svg"
   xmlns="http://www.w3.org/2000/svg"
   xmlns:sodipodi="http://sodipodi.sourceforge.net/DTD/sodipodi-0.dtd"
   xmlns:inkscape="http://www.inkscape.org/namespaces/inkscape"
   width="4440"
   height="1100"
   viewBox="0 0 4162.5001 1031.25"
   id="svg2"
   version="1.1"
   inkscape:version="0.92.1 unknown"
   sodipodi:docname="slogan.svg">
  <defs
     id="defs4" />
  <sodipodi:namedview
     id="base"
     pagecolor="#ffffff"
     bordercolor="#666666"
     borderopacity="1.0"
     inkscape:pageopacity="0.0"
     inkscape:pageshadow="2"
     inkscape:zoom="0.2557593"
     inkscape:cx="2423.0151"
     inkscape:cy="506.36654"
     inkscape:document-units="px"
     inkscape:current-layer="layer1"
     showgrid="false"
     showguides="false"
     inkscape:snap-center="true"
     inkscape:snap-object-midpoints="true"
     inkscape:snap-page="true"
     inkscape:snap-global="true"
     inkscape:snap-bbox="true"
     inkscape:object-paths="false"
     inkscape:snap-intersection-paths="false"
     inkscape:object-nodes="true"
     inkscape:snap-smooth-nodes="true"
     inkscape:snap-midpoints="false"
     inkscape:window-width="1920"
     inkscape:window-height="1019"
     inkscape:window-x="0"
     inkscape:window-y="0"
     inkscape:window-maximized="1"
     fit-margin-top="0"
     fit-margin-left="0"
     fit-margin-right="0"
     fit-margin-bottom="0"
     inkscape:showpageshadow="true"
     showborder="true"
     units="px" />
  <metadata
     id="metadata7">
    <rdf:RDF>
      <cc:Work
         rdf:about="">
        <dc:format>image/svg+xml</dc:format>
        <dc:type
           rdf:resource="http://purl.org/dc/dcmitype/StillImage" />
        <dc:title />
      </cc:Work>
    </rdf:RDF>
  </metadata>
  <g
     inkscape:label="Layer 1"
     inkscape:groupmode="layer"
     id="layer1"
     transform="translate(-5839.6348,-3898.0734)">
    <rect
       inkscape:export-ydpi="19.200001"
       inkscape:export-xdpi="19.200001"
       y="3898.0735"
       x="5839.6348"
       height="1031.25"
       width="4162.5"
       id="rect4830"
       style="opacity:1;fill:#ffffff;fill-opacity:1;stroke:none;stroke-width:15.16537285;stroke-linecap:round;stroke-linejoin:round;stroke-miterlimit:4;stroke-dasharray:none;stroke-dashoffset:0;stroke-opacity:1" />
    <path
       inkscape:export-ydpi="95.961525"
       inkscape:export-xdpi="95.961525"
       style="fill:none;fill-rule:evenodd;stroke:#37474f;stroke-width:39.86196518;stroke-linecap:butt;stroke-linejoin:miter;stroke-miterlimit:4;stroke-dasharray:none;stroke-opacity:1"
       d="M 6990.6189,4154.9814 6654.0338,4451.364 5956.7449,4143.725"
       id="path4832"
       inkscape:connector-curvature="0"
       sodipodi:nodetypes="ccc" />
    <path
       inkscape:export-ydpi="95.961525"
       inkscape:export-xdpi="95.961525"
       style="fill:none;fill-rule:evenodd;stroke:#37474f;stroke-width:39.86196518;stroke-linecap:butt;stroke-linejoin:miter;stroke-miterlimit:4;stroke-dasharray:none;stroke-opacity:1"
       d="m 6164.96,4475.0155 489.0739,-23.6515 437.2409,325.3888"
       id="path4834"
       inkscape:connector-curvature="0"
       sodipodi:nodetypes="ccc" />
    <path
       inkscape:export-ydpi="95.961525"
       inkscape:export-xdpi="95.961525"
       style="fill:none;fill-rule:evenodd;stroke:#37474f;stroke-width:39.86196518;stroke-linecap:butt;stroke-linejoin:miter;stroke-miterlimit:4;stroke-dasharray:none;stroke-opacity:1"
       d="m 6442.9809,4015.1831 211.0529,436.1808 -489.8456,360.8494"
       id="path4836"
       inkscape:connector-curvature="0"
       sodipodi:nodetypes="ccc" />
    <circle
       inkscape:export-ydpi="95.961525"
       inkscape:export-xdpi="95.961525"
       r="107.73506"
       cy="7981.3901"
       cx="1558.8481"
       id="circle4838"
       style="opacity:1;fill:#1976d2;fill-opacity:1;stroke:none;stroke-width:44.29106522;stroke-linecap:round;stroke-linejoin:miter;stroke-miterlimit:4;stroke-dasharray:none;stroke-opacity:1"
       transform="rotate(-48.222881)"
       inkscape:transform-center-y="-258.67722"
       inkscape:transform-center-x="-466.53745" />
    <circle
       inkscape:export-ydpi="95.961525"
       inkscape:export-xdpi="95.961525"
       style="opacity:1;fill:#37474f;fill-opacity:1;stroke:none;stroke-width:33.21829605;stroke-linecap:round;stroke-linejoin:miter;stroke-miterlimit:4;stroke-dasharray:none;stroke-opacity:1"
       id="circle4840"
       cx="6646.208"
       cy="4440.0186"
       r="254.33398" />
    <circle
       inkscape:export-ydpi="95.961525"
       inkscape:export-xdpi="95.961525"
       inkscape:transform-center-y="362.99905"
       inkscape:transform-center-x="-557.42714"
       transform="rotate(11.777119)"
       style="opacity:1;fill:#d32f2f;fill-opacity:1;stroke:none;stroke-width:44.2910614;stroke-linecap:round;stroke-linejoin:miter;stroke-miterlimit:4;stroke-dasharray:none;stroke-opacity:1"
       id="circle4842"
       cx="7916.9556"
       cy="3228.8308"
       r="107.73506" />
    <circle
       inkscape:export-ydpi="95.961525"
       inkscape:export-xdpi="95.961525"
       r="107.73506"
       cy="-4350.189"
       cx="6498.4971"
       id="circle4844"
       style="opacity:1;fill:#00796b;fill-opacity:1;stroke:none;stroke-width:44.29106522;stroke-linecap:round;stroke-linejoin:miter;stroke-miterlimit:4;stroke-dasharray:none;stroke-opacity:1"
       transform="rotate(71.77712)"
       inkscape:transform-center-x="359.76713"
       inkscape:transform-center-y="398.45416" />
    <circle
       inkscape:export-ydpi="95.961525"
       inkscape:export-xdpi="95.961525"
       inkscape:transform-center-y="-398.45403"
       transform="rotate(131.77712)"
       style="opacity:1;fill:#388e3c;fill-opacity:1;stroke:none;stroke-width:44.29106522;stroke-linecap:round;stroke-linejoin:miter;stroke-miterlimit:4;stroke-dasharray:none;stroke-opacity:1"
       id="circle4846"
       cx="-1298.2467"
       cy="-7479.855"
       r="107.73506"
       inkscape:transform-center-x="81.016871" />
    <circle
       inkscape:export-ydpi="95.961525"
       inkscape:export-xdpi="95.961525"
       r="107.73506"
       cy="-3122.5115"
       cx="-6948.5542"
       id="circle4848"
       style="opacity:1;fill:#f57c00;fill-opacity:1;stroke:none;stroke-width:44.29106522;stroke-linecap:round;stroke-linejoin:miter;stroke-miterlimit:4;stroke-dasharray:none;stroke-opacity:1"
       transform="rotate(-168.22288)"
       inkscape:transform-center-x="358.99544"
       inkscape:transform-center-y="61.308244" />
    <circle
       inkscape:export-ydpi="95.961525"
       inkscape:export-xdpi="95.961525"
       inkscape:transform-center-y="-269.93196"
       inkscape:transform-center-x="557.4271"
       transform="rotate(-108.22288)"
       style="opacity:1;fill:#7b1fa2;fill-opacity:1;stroke:none;stroke-width:44.29106522;stroke-linecap:round;stroke-linejoin:miter;stroke-miterlimit:4;stroke-dasharray:none;stroke-opacity:1"
       id="circle4850"
       cx="-5798.6646"
       cy="4362.1953"
       r="107.73506" />
    <path
       inkscape:export-ydpi="95.961525"
       inkscape:export-xdpi="95.961525"
       id="path4852"
       d="m 6749.786,4430.8826 2.7407,48.1146 q 0.609,10.5061 -12.4856,19.4895 -13.0944,8.9835 -35.7815,14.2366 -22.6869,5.253 -49.1804,5.253 -26.4935,0 -49.1805,-5.253 -22.6872,-5.2531 -35.7816,-14.2366 -13.0945,-8.9834 -12.4855,-19.4895 l 2.7408,-48.1146 87.3983,27.5593 q 3.3497,1.0659 7.3085,1.0659 3.9588,0 7.3085,-1.0659 z m 80.6987,-49.3329 q 0,3.5021 -3.3496,4.7201 l -170.5334,53.5963 q -0.609,0.1522 -1.5225,0.1522 -0.9136,0 -1.5225,-0.1522 l -99.2748,-31.366 q -6.5473,5.1769 -10.8105,16.9771 -4.2635,11.8004 -5.1769,27.1787 9.5925,5.4814 9.5925,16.5965 0,10.5061 -8.8313,16.292 l 8.8313,65.9294 q 0.3044,2.1316 -1.2181,3.8065 -1.3704,1.6749 -3.6544,1.6749 h -29.2342 q -2.284,0 -3.6543,-1.6749 -1.5225,-1.6749 -1.2181,-3.8065 l 8.8312,-65.9294 q -8.8312,-5.7859 -8.8312,-16.292 0,-11.1151 9.8971,-16.9009 1.6748,-31.5183 14.9216,-50.2464 l -50.7031,-15.8353 q -3.3498,-1.218 -3.3498,-4.7201 0,-3.502 3.3498,-4.7201 l 170.5332,-53.596 q 0.6089,-0.1523 1.5225,-0.1523 0.9135,0 1.5225,0.1523 l 170.5334,53.596 q 3.3496,1.2181 3.3496,4.7201 z"
       horiz-adv-x="2304"
       unicode="ï†"
       inkscape:connector-curvature="0"
       style="fill:#ffffff;stroke-width:1.10727644" />
    <text
       inkscape:export-ydpi="95.961525"
       inkscape:export-xdpi="95.961525"
       id="text4880"
       y="4760.3291"
       x="7367.0479"
       style="font-style:normal;font-weight:normal;font-size:35.62097168px;line-height:22.26310349px;font-family:sans-serif;letter-spacing:0px;word-spacing:0px;fill:#90a4ae;fill-opacity:1;stroke:none;stroke-width:0.89052427px;stroke-linecap:butt;stroke-linejoin:miter;stroke-opacity:1"
       xml:space="preserve"><tspan
         style="font-style:normal;font-variant:normal;font-weight:bold;font-stretch:normal;font-size:118.74033356px;font-family:Laksaman;-inkscape-font-specification:'Laksaman, Bold';font-variant-ligatures:normal;font-variant-caps:normal;font-variant-numeric:normal;font-feature-settings:normal;text-align:start;writing-mode:lr-tb;text-anchor:start;fill:#90a4ae;fill-opacity:1;stroke-width:0.89052427px"
         y="4760.3291"
         x="7367.0479"
         id="tspan4878"
         sodipodi:role="line">The unified hub of UOS websites re-designed!</tspan></text>
    <g
       id="g4940">
      <path
         inkscape:export-ydpi="95.961525"
         inkscape:export-xdpi="95.961525"
         d="m 9155.5078,4525.37 h -38.6624 v -237.727 h -245.5061 v 237.727 h -38.6624 v -478.125 h 38.6624 v 207.0094 h 245.5061 V 4047.245 h 38.6624 z"
         style="font-style:normal;font-variant:normal;font-weight:normal;font-stretch:normal;font-size:662.5px;line-height:23.4375px;font-family:Laksaman;-inkscape-font-specification:'Laksaman, Normal';font-variant-ligatures:normal;font-variant-caps:normal;font-variant-numeric:normal;font-feature-settings:normal;text-align:start;letter-spacing:0px;word-spacing:0px;writing-mode:lr-tb;text-anchor:start;fill:#81c784;fill-opacity:1;stroke:none;stroke-width:1.02768075px;stroke-linecap:butt;stroke-linejoin:miter;stroke-opacity:1"
         id="path4866"
         inkscape:connector-curvature="0" />
      <path
         inkscape:export-ydpi="95.961525"
         inkscape:export-xdpi="95.961525"
         sodipodi:nodetypes="ccccccccccccc"
         d="m 9155.5078,4525.37 h -38.6624 v -237.727 h -245.5063 v 237.727 h -38.6624 v -478.125 h 38.6624 v 207.0094 h 245.5063 v -86.1576 l 38.6624,3.0869 z"
         style="font-style:normal;font-variant:normal;font-weight:normal;font-stretch:normal;font-size:662.5px;line-height:23.4375px;font-family:Laksaman;-inkscape-font-specification:'Laksaman, Normal';font-variant-ligatures:normal;font-variant-caps:normal;font-variant-numeric:normal;font-feature-settings:normal;text-align:start;letter-spacing:0px;word-spacing:0px;writing-mode:lr-tb;text-anchor:start;fill:#388e3c;fill-opacity:1;stroke:none;stroke-width:1.02768075px;stroke-linecap:butt;stroke-linejoin:miter;stroke-opacity:1"
         id="path4868"
         inkscape:connector-curvature="0" />
      <path
         inkscape:connector-curvature="0"
         id="path4882"
         style="font-style:normal;font-variant:normal;font-weight:normal;font-stretch:normal;font-size:662.5px;line-height:23.4375px;font-family:Laksaman;-inkscape-font-specification:'Laksaman, Normal';font-variant-ligatures:normal;font-variant-caps:normal;font-variant-numeric:normal;font-feature-settings:normal;text-align:start;letter-spacing:0px;word-spacing:0px;writing-mode:lr-tb;text-anchor:start;fill:#4caf50;fill-opacity:1;stroke:none;stroke-width:1.02768075px;stroke-linecap:butt;stroke-linejoin:miter;stroke-opacity:1"
         d="m 9116.8454,4168.0968 4e-4,-36.993 38.662,3.0869 v 36.993 z"
         sodipodi:nodetypes="ccccc"
         inkscape:export-xdpi="95.961525"
         inkscape:export-ydpi="95.961525" />
    </g>
    <g
       id="g4945">
      <path
         inkscape:connector-curvature="0"
         id="path4870"
         style="font-style:normal;font-variant:normal;font-weight:normal;font-stretch:normal;font-size:662.5px;line-height:23.4375px;font-family:Laksaman;-inkscape-font-specification:'Laksaman, Normal';font-variant-ligatures:normal;font-variant-caps:normal;font-variant-numeric:normal;font-feature-settings:normal;text-align:start;letter-spacing:0px;word-spacing:0px;writing-mode:lr-tb;text-anchor:start;fill:#64b5f6;fill-opacity:1;stroke:none;stroke-width:1.01777864px;stroke-linecap:butt;stroke-linejoin:miter;stroke-opacity:1"
         d="m 9606.0309,4318.4009 q 0,206.9691 -173.3366,206.9691 -173.3364,0 -173.3364,-206.9691 V 4047.245 h 38.6624 v 269.8459 q 0,83.1806 32.863,129.6832 32.8632,45.8477 101.811,45.8477 68.948,0 101.811,-45.8477 32.8632,-46.5026 32.8632,-129.6832 V 4047.245 h 38.6624 z"
         inkscape:export-xdpi="95.961525"
         inkscape:export-ydpi="95.961525" />
      <path
         sodipodi:nodetypes="sssccscscsccs"
         d="m 9606.0309,4318.4008 c 0,137.9795 -57.779,206.9692 -173.3366,206.9692 -115.5576,0 -173.3364,-68.9897 -173.3364,-206.9692 V 4047.245 h 38.6624 v 269.8459 c 0,55.4537 10.9543,98.6815 32.863,129.6832 21.9088,30.5651 55.8458,45.8476 101.811,45.8476 45.9653,0 79.9023,-15.2825 101.811,-45.8476 21.9088,-31.0017 32.8632,-74.2295 32.8632,-129.6832 V 4175.713 l 38.6624,3.2112 z"
         style="font-style:normal;font-variant:normal;font-weight:normal;font-stretch:normal;font-size:662.5px;line-height:23.4375px;font-family:Laksaman;-inkscape-font-specification:'Laksaman, Normal';font-variant-ligatures:normal;font-variant-caps:normal;font-variant-numeric:normal;font-feature-settings:normal;text-align:start;letter-spacing:0px;word-spacing:0px;writing-mode:lr-tb;text-anchor:start;fill:#1976d2;fill-opacity:1;stroke:none;stroke-width:1.01777864px;stroke-linecap:butt;stroke-linejoin:miter;stroke-opacity:1"
         id="path4872"
         inkscape:connector-curvature="0"
         inkscape:export-xdpi="95.961525"
         inkscape:export-ydpi="95.961525" />
      <path
         inkscape:export-ydpi="95.961525"
         inkscape:export-xdpi="95.961525"
         sodipodi:nodetypes="ccccc"
         d="m 9567.3685,4175.713 4e-4,-36.8687 38.662,3.0869 v 36.993 z"
         style="font-style:normal;font-variant:normal;font-weight:normal;font-stretch:normal;font-size:662.5px;line-height:23.4375px;font-family:Laksaman;-inkscape-font-specification:'Laksaman, Normal';font-variant-ligatures:normal;font-variant-caps:normal;font-variant-numeric:normal;font-feature-settings:normal;text-align:start;letter-spacing:0px;word-spacing:0px;writing-mode:lr-tb;text-anchor:start;fill:#2196f3;fill-opacity:1;stroke:none;stroke-width:1.02768075px;stroke-linecap:butt;stroke-linejoin:miter;stroke-opacity:1"
         id="path4884"
         inkscape:connector-curvature="0" />
    </g>
    <g
       id="g4935"
       transform="translate(-2.3880467e-5)">
      <path
         inkscape:connector-curvature="0"
         id="path4862"
         style="font-style:normal;font-variant:normal;font-weight:normal;font-stretch:normal;font-size:662.5px;line-height:23.4375px;font-family:Laksaman;-inkscape-font-specification:'Laksaman, Normal';font-variant-ligatures:normal;font-variant-caps:normal;font-variant-numeric:normal;font-feature-settings:normal;text-align:start;letter-spacing:0px;word-spacing:0px;writing-mode:lr-tb;text-anchor:start;fill:#ba68c8;fill-opacity:1;stroke:none;stroke-width:1.01777864px;stroke-linecap:butt;stroke-linejoin:miter;stroke-opacity:1"
         d="m 7714.4332,4318.4009 q 0,206.9691 -173.3365,206.9691 -173.3363,0 -173.3363,-206.9691 V 4047.245 h 38.6624 v 269.8459 q 0,83.1806 32.8629,129.6832 32.8631,45.8477 101.811,45.8477 68.948,0 101.811,-45.8477 32.8632,-46.5026 32.8632,-129.6832 V 4047.245 h 38.6623 z"
         inkscape:export-xdpi="95.961525"
         inkscape:export-ydpi="95.961525" />
      <path
         inkscape:connector-curvature="0"
         id="path4864"
         style="font-style:normal;font-variant:normal;font-weight:normal;font-stretch:normal;font-size:662.5px;line-height:23.4375px;font-family:Laksaman;-inkscape-font-specification:'Laksaman, Normal';font-variant-ligatures:normal;font-variant-caps:normal;font-variant-numeric:normal;font-feature-settings:normal;text-align:start;letter-spacing:0px;word-spacing:0px;writing-mode:lr-tb;text-anchor:start;fill:#7b1fa2;fill-opacity:1;stroke:none;stroke-width:1.01777864px;stroke-linecap:butt;stroke-linejoin:miter;stroke-opacity:1"
         d="m 7714.4332,4318.4008 c 0,137.9795 -57.7789,206.9692 -173.3365,206.9692 -115.5575,0 -173.3364,-68.9897 -173.3364,-206.9692 V 4047.245 h 38.6624 v 269.8459 c 0,55.4537 10.9543,98.6815 32.863,129.6832 21.9087,30.5651 55.8458,45.8476 101.811,45.8476 45.9653,0 79.9022,-15.2825 101.8109,-45.8476 21.9088,-31.0017 32.8633,-74.2295 32.8633,-129.6832 V 4175.713 l 38.6623,3.2112 z"
         sodipodi:nodetypes="sssccscscsccs"
         inkscape:export-xdpi="95.961525"
         inkscape:export-ydpi="95.961525" />
      <path
         inkscape:connector-curvature="0"
         id="path4886"
         style="font-style:normal;font-variant:normal;font-weight:normal;font-stretch:normal;font-size:662.5px;line-height:23.4375px;font-family:Laksaman;-inkscape-font-specification:'Laksaman, Normal';font-variant-ligatures:normal;font-variant-caps:normal;font-variant-numeric:normal;font-feature-settings:normal;text-align:start;letter-spacing:0px;word-spacing:0px;writing-mode:lr-tb;text-anchor:start;fill:#9c27b0;fill-opacity:1;stroke:none;stroke-width:1.02768075px;stroke-linecap:butt;stroke-linejoin:miter;stroke-opacity:1"
         d="m 7675.7708,4175.8373 4e-4,-36.993 38.662,3.0869 v 36.993 z"
         sodipodi:nodetypes="ccccc"
         inkscape:export-xdpi="95.961525"
         inkscape:export-ydpi="95.961525" />
    </g>
    <g
       id="g4950">
      <path
         inkscape:connector-curvature="0"
         id="path4874"
         style="font-style:normal;font-variant:normal;font-weight:normal;font-stretch:normal;font-size:662.5px;line-height:23.4375px;font-family:Laksaman;-inkscape-font-specification:'Laksaman, Normal';font-variant-ligatures:normal;font-variant-caps:normal;font-variant-numeric:normal;font-feature-settings:normal;text-align:start;letter-spacing:0px;word-spacing:0px;writing-mode:lr-tb;text-anchor:start;fill:#ef5350;fill-opacity:1;stroke:none;stroke-width:1.00951505px;stroke-linecap:butt;stroke-linejoin:miter;stroke-opacity:1"
         d="m 9974.7179,4163.8766 q 0,37.3737 -22.553,66.3705 -21.9087,28.3524 -54.1274,39.9511 38.6624,9.6656 66.3705,42.5286 28.3519,32.2187 28.3519,76.0361 0,136.6071 -194.6002,136.6071 -45.7506,0 -88.2792,-9.0212 v -456.2163 q 49.6168,-12.8875 97.3004,-12.8875 167.537,0 167.537,116.6316 z m -148.2059,92.1454 q 47.0393,0 77.9693,-24.4862 31.5742,-24.4862 31.5742,-66.3705 0,-85.7016 -128.8746,-85.7016 -30.9299,0 -58.638,6.4437 v 170.1146 z m -20.6199,237.1294 q 64.4374,0 106.3216,-25.775 41.8843,-26.4193 41.8843,-77.9691 0,-50.9055 -39.3068,-76.0361 -39.3068,-25.1305 -99.8778,-25.1305 h -66.3705 v 199.1113 q 26.4193,5.7994 57.3492,5.7994 z"
         inkscape:export-xdpi="95.961525"
         inkscape:export-ydpi="95.961525" />
      <path
         inkscape:connector-curvature="0"
         id="path4876"
         style="font-style:normal;font-variant:normal;font-weight:normal;font-stretch:normal;font-size:662.5px;line-height:23.4375px;font-family:Laksaman;-inkscape-font-specification:'Laksaman, Normal';font-variant-ligatures:normal;font-variant-caps:normal;font-variant-numeric:normal;font-feature-settings:normal;text-align:start;letter-spacing:0px;word-spacing:0px;writing-mode:lr-tb;text-anchor:start;fill:#d32f2f;fill-opacity:1;stroke:none;stroke-width:1.00951505px;stroke-linecap:butt;stroke-linejoin:miter;stroke-opacity:1"
         d="m 9974.558,4170.067 c -1.158,22.3901 -8.622,42.4379 -22.3931,60.1433 -14.606,18.9016 -32.6484,32.2187 -54.1274,39.9512 25.7749,6.4437 47.8984,20.6199 66.3705,42.5286 18.901,21.4791 28.3519,46.8245 28.3519,76.036 0,91.0714 -64.8665,136.6072 -194.6003,136.6072 -30.5003,0 -59.9268,-3.0071 -88.2791,-9.0212 v -456.2163 c 30.5788,-7.9425 60.6068,-12.2139 90.0843,-12.814 l 7.2161,32.1452 c -20.6201,0 -40.166,2.1478 -58.638,6.4437 v 170.1145 h 77.9691 c 31.3596,0 57.3493,-8.1621 77.9692,-24.4861 21.0496,-16.3241 31.5742,-38.4477 31.5742,-66.3705 z m -168.6659,323.0476 c 42.9582,0 78.3987,-8.5916 106.3216,-25.7749 27.9228,-17.6128 41.8843,-43.6026 41.8843,-77.9692 0,-33.937 -13.1022,-59.2823 -39.3068,-76.036 -26.2046,-16.7537 -59.4972,-25.1306 -99.8779,-25.1306 h -66.3704 v 199.1114 c 17.6128,3.8662 36.7293,5.7993 57.3492,5.7993 z"
         sodipodi:nodetypes="ccccssccccccscccscsssccs"
         inkscape:export-xdpi="95.961525"
         inkscape:export-ydpi="95.961525" />
      <path
         d="m 9807.1819,4047.2452 c -2.3979,0 -4.8001,0.034 -7.2053,0.082 l 7.2053,32.1002 c 0,0 0.01,0.036 0.01,0.037 14.7426,4e-4 28.2203,0.842 40.4329,2.5248 l -7.7161,-33.5074 c -10.3165,-0.8244 -21.2252,-1.2366 -32.7259,-1.2366 z m 121.6748,82.1988 c 4.7946,10.3022 7.1941,22.1971 7.1987,35.6846 l 38.4851,4.9384 c 0.1053,-2.0462 0.1795,-4.1038 0.1795,-6.189 0,-11.1527 -1.149,-21.5056 -3.4469,-31.0587 z"
         style="font-style:normal;font-variant:normal;font-weight:normal;font-stretch:normal;font-size:662.5px;line-height:23.4375px;font-family:Laksaman;-inkscape-font-specification:'Laksaman, Normal';font-variant-ligatures:normal;font-variant-caps:normal;font-variant-numeric:normal;font-feature-settings:normal;text-align:start;letter-spacing:0px;word-spacing:0px;writing-mode:lr-tb;text-anchor:start;fill:#e53935;fill-opacity:1;stroke:none;stroke-width:1.00951505px;stroke-linecap:butt;stroke-linejoin:miter;stroke-opacity:1"
         id="path4906"
         inkscape:connector-curvature="0" />
    </g>
    <g
       id="g4930"
       transform="translate(-8.2372444e-5)">
      <path
         inkscape:export-ydpi="95.961525"
         inkscape:export-xdpi="95.961525"
         d="m 8588.5963,4395.851 q 0,59.9267 -45.1061,94.7229 -44.4618,34.7961 -111.4765,34.7961 -76.0362,0 -126.9417,-35.4405 l 15.465,-32.863 q 47.6835,36.0849 115.3428,36.0849 50.9055,0 82.4799,-24.4862 31.5742,-24.4862 31.5742,-69.5923 0,-43.8174 -25.1306,-65.7261 -25.1304,-22.5531 -75.3916,-38.018 -128.8747,-41.8843 -128.8747,-130.1635 0,-54.1273 41.2399,-85.7016 41.2399,-32.2187 101.811,-32.2187 64.4373,0 105.6773,24.4862 -1.2887,2.5775 -7.7325,14.1762 -5.7994,10.9544 -8.3769,16.1094 -41.8843,-22.5531 -90.2122,-22.5531 -45.1061,0 -74.7474,21.2643 -28.9967,21.2643 -28.9967,59.9267 0,63.793 99.8778,98.5892 32.2186,11.5987 51.5499,21.2643 19.9756,9.0212 39.9512,24.4862 19.9756,15.4649 28.9968,38.018 9.0211,22.5531 9.0211,52.8386 z"
         style="font-style:normal;font-variant:normal;font-weight:normal;font-stretch:normal;font-size:662.5px;line-height:23.4375px;font-family:Laksaman;-inkscape-font-specification:'Laksaman, Normal';font-variant-ligatures:normal;font-variant-caps:normal;font-variant-numeric:normal;font-feature-settings:normal;text-align:start;letter-spacing:0px;word-spacing:0px;writing-mode:lr-tb;text-anchor:start;fill:#4db6ac;fill-opacity:1;stroke:none;stroke-width:1.00951505px;stroke-linecap:butt;stroke-linejoin:miter;stroke-opacity:1"
         id="path4858"
         inkscape:connector-curvature="0" />
      <path
         inkscape:export-ydpi="95.961525"
         inkscape:export-xdpi="95.961525"
         sodipodi:nodetypes="scsccsssccsccccsccsss"
         d="m 8588.5963,4395.8133 c 0,39.9511 -15.0353,71.5254 -45.1062,94.7228 -29.641,23.1975 -66.7999,34.7962 -111.4764,34.7962 -50.6908,0 -93.0046,-11.8135 -126.9417,-35.4405 l 15.465,-32.8631 c 31.7891,24.0566 70.2367,36.0849 115.3428,36.0849 33.9371,0 61.4303,-8.1621 82.4799,-24.4862 21.0495,-16.3241 31.5742,-39.5215 31.5742,-69.5923 0,-29.2115 -8.3768,-51.1202 -25.1306,-65.7261 -16.7537,-15.0353 -41.8841,-27.708 -75.3917,-38.018 -85.9163,-27.9228 -128.8746,-71.3107 -128.8746,-130.1634 0,-36.0849 13.7466,-64.6521 41.2399,-85.7016 20.1147,-15.7146 43.6784,-25.6805 70.6912,-29.898 l 8.2396,31.3122 c -20.3429,2.713 -37.8467,9.3297 -52.5115,19.8501 -19.3311,14.1762 -28.9967,34.1518 -28.9967,59.9267 0,42.5286 33.2925,75.3917 99.8777,98.5891 21.4791,7.7325 38.6625,14.8206 51.55,21.2643 13.3171,6.0141 26.6341,14.1762 39.9512,24.4862 13.317,10.31 22.9826,22.9827 28.9968,38.018 6.014,15.0354 9.0211,32.6483 9.0211,52.8387 z"
         style="font-style:normal;font-variant:normal;font-weight:normal;font-stretch:normal;font-size:662.5px;line-height:23.4375px;font-family:Laksaman;-inkscape-font-specification:'Laksaman, Normal';font-variant-ligatures:normal;font-variant-caps:normal;font-variant-numeric:normal;font-feature-settings:normal;text-align:start;letter-spacing:0px;word-spacing:0px;writing-mode:lr-tb;text-anchor:start;fill:#00796b;fill-opacity:1;stroke:none;stroke-width:1.00951505px;stroke-linecap:butt;stroke-linejoin:miter;stroke-opacity:1"
         id="path4860"
         inkscape:connector-curvature="0" />
      <path
         style="font-style:normal;font-variant:normal;font-weight:normal;font-stretch:normal;font-size:662.5px;line-height:23.4375px;font-family:Laksaman;-inkscape-font-specification:'Laksaman, Normal';font-variant-ligatures:normal;font-variant-caps:normal;font-variant-numeric:normal;font-feature-settings:normal;text-align:start;letter-spacing:0px;word-spacing:0px;writing-mode:lr-tb;text-anchor:start;fill:#26a69a;fill-opacity:1;stroke:none;stroke-width:1.00951505px;stroke-linecap:butt;stroke-linejoin:miter;stroke-opacity:1"
         d="m 8463.5759,4047.2008 c -10.8349,0 -21.2008,0.7809 -31.1078,2.3272 l 8.2288,31.269 c 0,0.015 0.01,0.031 0.013,0.046 7.0669,-0.9421 14.4696,-1.4227 22.2217,-1.4227 5.2203,0 10.3844,0.1974 15.4921,0.5921 l -8.4479,-32.7499 c -2.1137,-0.041 -4.247,-0.061 -6.3997,-0.061 z"
         id="path4890"
         inkscape:connector-curvature="0"
         sodipodi:nodetypes="scccsccs" />
    </g>
    <g
       id="g4925"
       transform="translate(-2299.2819)">
      <path
         inkscape:connector-curvature="0"
         id="path4854"
         style="font-style:normal;font-variant:normal;font-weight:normal;font-stretch:normal;font-size:662.5px;line-height:23.4375px;font-family:Laksaman;-inkscape-font-specification:'Laksaman, Normal';font-variant-ligatures:normal;font-variant-caps:normal;font-variant-numeric:normal;font-feature-settings:normal;text-align:start;letter-spacing:0px;word-spacing:0px;writing-mode:lr-tb;text-anchor:start;fill:#ffb74d;fill-opacity:1;stroke:none;stroke-width:1.00951505px;stroke-linecap:butt;stroke-linejoin:miter;stroke-opacity:1"
         d="m 10523.289,4286.9519 q 0,101.811 -59.283,170.1146 -58.638,68.3035 -154.65,68.3035 -95.367,0 -155.293,-68.3035 -59.283,-68.948 -59.283,-170.1146 0,-101.1666 59.283,-170.1146 59.926,-69.5923 155.293,-69.5923 95.368,0 154.65,68.948 59.283,68.9479 59.283,170.7589 z m -38.663,0 q 0,-83.7685 -49.617,-145.6284 -48.972,-61.8598 -125.653,-61.8598 -77.969,0 -126.941,61.8598 -48.972,61.2155 -48.972,145.6284 0,84.4129 48.972,145.6284 48.972,60.5711 126.941,60.5711 76.681,0 125.653,-61.2155 49.617,-61.2155 49.617,-144.984 z"
         inkscape:export-xdpi="95.961525"
         inkscape:export-ydpi="95.961525" />
      <path
         inkscape:connector-curvature="0"
         id="path4856"
         style="font-style:normal;font-variant:normal;font-weight:normal;font-stretch:normal;font-size:662.5px;line-height:23.4375px;font-family:Laksaman;-inkscape-font-specification:'Laksaman, Normal';font-variant-ligatures:normal;font-variant-caps:normal;font-variant-numeric:normal;font-feature-settings:normal;text-align:start;letter-spacing:0px;word-spacing:0px;writing-mode:lr-tb;text-anchor:start;fill:#f57c00;fill-opacity:1;stroke:none;stroke-width:1.00951505px;stroke-linecap:butt;stroke-linejoin:miter;stroke-opacity:1"
         d="m 10498.32,4168.6199 c 16.646,34.8216 24.969,74.257 24.969,118.3061 0,67.8739 -19.761,124.5788 -59.283,170.1145 -39.092,45.5358 -90.642,68.3036 -154.65,68.3036 -63.578,0 -115.342,-22.7678 -155.293,-68.3036 -39.522,-45.9652 -59.283,-102.6701 -59.283,-170.1145 0,-67.4445 19.761,-124.1493 59.283,-170.1146 38.861,-45.1289 88.899,-68.309 150.115,-69.5405 l 5.178,32.1669 c -51.979,0 -94.293,20.6199 -126.941,61.8598 -32.648,40.8103 -48.972,89.3531 -48.972,145.6284 0,56.2752 16.324,104.8181 48.972,145.6283 32.648,40.3808 74.962,60.5711 126.941,60.5711 51.121,0 93.005,-20.4052 125.653,-61.2154 33.078,-40.8103 49.617,-89.1383 49.617,-144.984 0,-44.8688 -10.676,-85.0234 -32.029,-120.4638 z"
         sodipodi:nodetypes="cscscsccccscscscc"
         inkscape:export-xdpi="95.961525"
         inkscape:export-ydpi="95.961525" />
      <path
         sodipodi:nodetypes="cscccccccccc"
         inkscape:connector-curvature="0"
         d="m 10343.867,4049.6448 c -11.08,-1.6178 -22.584,-2.4266 -34.511,-2.4266 -1.734,0 -3.457,0.024 -5.173,0.059 l 5.173,32.1606 c 14.186,0 27.662,1.5881 40.426,4.7642 m 78.496,49.0596 c 2.286,2.5935 4.529,5.2809 6.731,8.0619 6.487,8.0883 12.328,16.4628 17.543,25.1129 l 0.04,0.026 45.698,2.1552 c -6.016,-12.58 -13.114,-24.5606 -21.301,-35.938 z"
         style="font-style:normal;font-variant:normal;font-weight:normal;font-stretch:normal;font-size:662.5px;line-height:23.4375px;font-family:Laksaman;-inkscape-font-specification:'Laksaman, Normal';font-variant-ligatures:normal;font-variant-caps:normal;font-variant-numeric:normal;font-feature-settings:normal;text-align:start;letter-spacing:0px;word-spacing:0px;writing-mode:lr-tb;text-anchor:start;fill:#ff9800;fill-opacity:1;stroke:none;stroke-width:1.00951505px;stroke-linecap:butt;stroke-linejoin:miter;stroke-opacity:1"
         id="path4910" />
    </g>
  </g>
</svg>
